<svg width="60" height="60" fill="none" xmlns="http://www.w3.org/2000/svg"><g clip-path="url(#a)"><circle cx="30.128" cy="30.128" r="30.128" fill="#FF7E7E"/><path d="m27.06 30-8.078-8.079a2.078 2.078 0 1 1 2.939-2.939L30 27.062l8.078-8.063a2.077 2.077 0 0 1 2.94 0L27.06 30Zm0 0-8.078 8.079a2.078 2.078 0 1 0 2.939 2.939L30 32.938l8.078 8.08a2.078 2.078 0 1 0 2.94-2.939L32.937 30l8.08-8.079a2.087 2.087 0 0 0 0-2.922L27.06 30Z" fill="#fff" stroke="#fff" stroke-width=".753"/></g><defs><clipPath id="a"><path fill="#fff" d="M0 0h60v60H0z"/></clipPath></defs></svg>