<svg width="167" height="156" fill="none" xmlns="http://www.w3.org/2000/svg"><path fill-rule="evenodd" clip-rule="evenodd" d="M133.174.019H34.371v11.47H.018v53.8c0 20.793 23.191 37.903 45.95 39.683 7.47 8.01 20.611 13.829 32.307 16.31v14.062c-11.184 3.437-31.163 11.514-32.308 20.314h76.756c-1.156-8.8-23.169-16.888-34.375-20.314v-14.062c11.74-2.481 25.47-8.3 32.952-16.31 22.747-1.78 44.916-18.89 44.916-39.683v-53.8h-33.042V.019ZM10.569 21.679H33.57v46.347c0 9.145 2.357 17.845 6.504 25.677-17.21-5.485-29.506-19.614-29.506-36.146V21.68Zm90.097 56.526L83.5 68.739l-17.188 9.468 3.28-20.026-13.897-14.173 19.2-2.926 8.605-18.2 8.583 18.2 19.2 2.926-13.897 14.174 3.28 20.025Zm25.515 16.977c4.169-8.188 6.559-17.243 6.559-26.822V21.98h23.058v35.444c0 17.277-12.351 32.029-29.617 37.758Z" fill="#FFBCA2"/></svg>