<svg width="36" height="36" fill="none" xmlns="http://www.w3.org/2000/svg"><path d="M30.375 18.855v-1.721l2.16-1.89a2.25 2.25 0 0 0 .427-2.869l-2.655-4.5a2.25 2.25 0 0 0-1.946-1.125 2.25 2.25 0 0 0-.72.113l-2.734.922a12.773 12.773 0 0 0-1.473-.844l-.574-2.835a2.25 2.25 0 0 0-2.25-1.81h-5.265a2.25 2.25 0 0 0-2.25 1.81l-.574 2.835c-.513.249-1.009.53-1.485.844L8.36 6.818a2.25 2.25 0 0 0-.72-.068 2.25 2.25 0 0 0-1.947 1.125l-2.655 4.5A2.25 2.25 0 0 0 3.5 15.2l2.126 1.946v1.721L3.5 20.757a2.25 2.25 0 0 0-.462 2.87l2.655 4.5A2.25 2.25 0 0 0 7.64 29.25c.244.002.487-.036.72-.112l2.733-.923c.472.314.965.596 1.474.844l.574 2.835a2.25 2.25 0 0 0 2.25 1.811h5.31a2.25 2.25 0 0 0 2.25-1.811l.574-2.835c.513-.248 1.009-.53 1.485-.844l2.722.923c.232.076.476.114.72.112a2.251 2.251 0 0 0 1.946-1.125l2.565-4.5a2.25 2.25 0 0 0-.46-2.824l-2.127-1.946ZM28.36 27l-3.859-1.305a9.968 9.968 0 0 1-3.048 1.766l-.8 4.04h-5.31l-.798-3.995a10.528 10.528 0 0 1-3.037-1.766L7.639 27l-2.655-4.5 3.06-2.7a10.013 10.013 0 0 1 0-3.521L4.984 13.5 7.639 9l3.858 1.305a9.967 9.967 0 0 1 3.05-1.766l.798-4.039h5.31l.799 3.994a10.532 10.532 0 0 1 3.037 1.766L28.361 9l2.655 4.5-3.06 2.7a10.013 10.013 0 0 1 0 3.521l3.06 2.78-2.655 4.5Z" fill="#fff"/><path d="M18 24.75A6.75 6.75 0 1 1 24.75 18 6.684 6.684 0 0 1 18 24.75Zm0-11.25a4.399 4.399 0 0 0-4.5 4.5 4.399 4.399 0 0 0 4.5 4.5 4.399 4.399 0 0 0 4.5-4.5 4.399 4.399 0 0 0-4.5-4.5Z" fill="#fff"/></svg>