<svg width="38" height="31" fill="none" xmlns="http://www.w3.org/2000/svg"><path d="M19.351 0a1.76 1.76 0 0 0-1.237.485L8.96 8.974H1.76c-.477 0-.889.161-1.237.485-.349.323-.523.706-.523 1.147v9.788c0 .442.174.824.523 1.148a1.76 1.76 0 0 0 1.237.484h7.2l9.154 8.49c.348.322.76.484 1.237.484.477 0 .889-.162 1.237-.485.349-.323.523-.705.523-1.147V1.632c0-.441-.174-.824-.521-1.147A1.755 1.755 0 0 0 19.352 0ZM29.598 19.132c.74-1.117 1.111-2.324 1.111-3.622s-.37-2.509-1.111-3.635-1.72-1.92-2.942-2.38a1.491 1.491 0 0 0-.653-.129c-.453 0-.846.158-1.177.473a1.547 1.547 0 0 0-.497 1.165c0 .359.104.661.314.908.21.247.461.461.758.64.296.179.592.375.889.589.296.214.549.515.758.908.209.393.313.88.313 1.46 0 .579-.104 1.066-.313 1.458-.21.393-.462.696-.758.909-.297.212-.593.41-.889.589a3.038 3.038 0 0 0-.758.64c-.209.246-.314.55-.314.907 0 .461.166.849.497 1.165.331.314.723.474 1.177.474.26 0 .479-.042.653-.128 1.22-.478 2.2-1.276 2.942-2.394v.003Z" fill="#B3B3B3"/><path d="M35.756 22.858C37.252 20.611 38 18.157 38 15.498c0-2.656-.748-5.108-2.244-7.358-1.495-2.247-3.475-3.886-5.937-4.91a1.93 1.93 0 0 0-.686-.13c-.457 0-.853.165-1.188.495-.335.33-.5.72-.5 1.173 0 .677.342 1.189 1.029 1.537.984.504 1.653.885 2.005 1.146a9.869 9.869 0 0 1 3.047 3.529 9.723 9.723 0 0 1 1.096 4.52 9.732 9.732 0 0 1-1.096 4.52 9.869 9.869 0 0 1-3.048 3.529c-.351.26-1.02.642-2.005 1.146-.686.348-1.029.86-1.029 1.537 0 .451.168.843.501 1.173.334.33.738.495 1.213.495.211 0 .432-.044.66-.13 2.462-1.026 4.442-2.662 5.937-4.91l.001-.002Z" fill="#B3B3B3"/></svg>